# Blender v2.91.0 OBJ File: 'tree.blend'
# www.blender.org
mtllib tree_low.mtl
o Cylinder_Cylinder.001
v 0.181218 2.175855 -3.130860
v 0.193929 9.882822 -0.191201
v 0.485911 9.875981 0.066170
v 0.181114 2.175841 3.260398
v 0.202901 9.874566 0.310676
v -0.095055 9.877922 0.064003
v 0.182761 4.697020 -2.276419
v 0.175844 7.194721 -1.542361
v 1.977322 7.188387 0.007187
v 2.774746 4.693997 0.064741
v 0.440617 7.083107 2.061703
v 0.182018 4.694224 2.409683
v -1.501909 7.201134 0.079255
v -2.407858 4.700339 0.065618
v 0.189793 8.151764 -1.676062
v 2.291478 8.236570 -0.073716
v 0.499529 8.103381 2.328948
v -1.901416 8.174326 0.543660
v 0.205302 5.426766 -2.909102
v 3.475318 5.679184 -0.032321
v 0.176577 5.721129 2.952053
v -3.263836 5.596390 0.153280
v 0.185466 3.208253 -4.096740
v 4.752806 3.222696 0.052890
v 0.160853 3.206450 4.210794
v -4.736055 3.427263 0.098928
v 3.887546 1.792053 4.341922
v -3.339536 1.987080 3.261261
v 0.360184 -0.118527 -1.010536
v 0.181393 2.822475 -0.951096
v 1.305108 2.821884 0.064734
v 0.158254 0.144253 1.146751
v -0.942442 2.824508 0.063709
v 0.804159 1.665901 0.627832
v -0.441894 1.666246 0.627687
v 0.175112 7.184087 -2.006693
v 2.801445 7.179778 -0.108366
v 0.298371 6.916374 2.312940
v -2.721914 7.116780 0.756298
v 0.243361 4.566525 -3.344239
v 4.143107 4.777462 0.286369
v 0.181602 4.689966 3.399197
v -3.575248 4.789700 0.067040
v 0.383219 2.267601 -4.226044
v 5.307381 1.898152 -0.052657
v 0.137117 2.096937 4.653948
v -5.476177 1.938118 0.610419
vt 0.574994 0.825154
vt 0.790609 0.943753
vt 0.892408 0.970762
vt 0.290591 0.991967
vt 0.188792 0.964957
vt 0.870571 0.135197
vt 0.393425 0.964957
vt 0.612285 0.915181
vt 0.934230 0.161566
vt 0.393425 0.964957
vt 0.844203 0.198856
vt 0.892408 0.916744
vt 0.356226 0.425879
vt 0.349575 0.409821
vt 0.365633 0.403169
vt 0.372284 0.419227
vt 0.402362 0.143973
vt 0.335369 0.275830
vt 0.534719 0.833559
vt 0.528086 0.685761
vt 0.271367 0.751533
vt 0.770068 0.443778
vt 0.770068 0.443778
vt 0.843395 0.128495
vt 0.915525 0.621943
vt 0.711846 0.128495
vt 0.495959 0.049532
vt 0.915525 0.404366
vt 0.456754 0.295981
vt 0.915525 0.621943
vt 0.333441 0.841019
vt 0.528086 0.903339
vt 0.201891 0.841019
vt 0.128936 0.908658
vt 0.770068 0.918347
vt 0.978189 0.104620
vt 0.528086 0.903339
vt 0.591843 0.539966
vt 0.534719 0.537963
vt 0.528086 0.685761
vt 0.658251 0.720475
vt 0.648810 0.093194
vt 0.915525 0.404366
vt 0.803708 0.819815
vt 0.031667 0.880873
vt 0.770068 0.918347
vt 0.776701 0.295981
vt 0.067397 0.126936
vt 0.658251 0.720475
vt 0.605149 0.246045
vt 0.803708 0.819815
vt 0.059452 0.783604
vt 0.452298 0.202383
vt 0.711846 0.128495
vt 0.258792 0.402362
vt 0.201891 0.841019
vt 0.156721 0.811389
vt 0.789801 0.720475
vt 0.000404 0.674133
vt 0.935258 0.819815
vt 0.644344 0.349565
vt 0.789801 0.720475
vt 0.077804 0.403169
vt 0.333441 0.841019
vt 0.403169 0.483571
vt 0.843395 0.128495
vt 0.348767 0.480570
vt 0.935258 0.819815
vt 0.590759 0.537155
vt 0.948420 0.000404
vt 0.591843 0.539966
vt 0.844203 0.030173
vt 0.591843 0.683562
vt 0.634476 0.678190
vt 0.634476 0.821785
vt 0.634476 0.821785
vt 0.591843 0.683562
vt 0.873972 0.134390
vt 0.634476 0.678190
vn -0.9247 -0.3784 -0.0405
vn 0.8887 -0.1241 -0.4414
vn 0.9279 -0.3497 0.1295
vn -0.8521 -0.2007 -0.4834
vn 0.0001 0.4379 0.8990
vn -0.0000 0.3228 0.9465
vn 0.0033 0.9999 0.0164
vn -0.0184 -0.9982 -0.0571
vn -0.0178 -0.9985 -0.0511
vn 0.6378 0.2860 -0.7151
vn 0.6412 0.2807 -0.7142
vn 0.6342 0.2833 -0.7194
vn -0.0004 -0.9992 0.0389
vn 0.6304 0.2999 -0.7160
vn 0.0914 -0.9925 0.0816
vn 0.5684 0.2787 -0.7741
vn -0.0357 0.9993 0.0103
vn -0.0319 0.9994 0.0153
vn -0.0416 0.9991 0.0082
vn -0.0454 -0.9984 0.0322
vn 0.0618 -0.9826 -0.1751
vn 0.0852 0.9950 0.0515
vn 0.0904 0.9948 0.0480
vn 0.0808 0.9952 0.0561
vn 0.0265 -0.9992 -0.0308
vn 0.0257 -0.9994 -0.0247
vn 0.0196 -0.9995 -0.0233
vn 0.0349 -0.9991 0.0259
vn -0.1935 -0.9480 -0.2527
vn 0.4967 0.6722 -0.5490
vn -0.1030 -0.9947 -0.0000
vn -0.0075 -0.9991 0.0429
vn -0.0134 -0.9998 0.0141
vn -0.6470 0.0218 -0.7622
vn -0.6422 0.0228 -0.7662
vn -0.6396 0.0177 -0.7685
vn -0.6182 0.3252 -0.7156
vn 0.5421 0.5318 -0.6506
vn -0.4368 0.7253 0.5321
vn 0.6386 0.4578 0.6186
vn 0.5000 0.6656 0.5540
vn -0.5453 0.5717 0.6131
vn -0.5532 0.4257 0.7161
vn -0.5571 0.4205 0.7161
vn -0.5491 0.4240 0.7202
vn -0.4438 0.7194 -0.5344
vn -0.5602 0.5313 -0.6355
vn 0.7405 0.0869 0.6664
vn -0.4906 0.2951 0.8199
vn -0.0276 -0.9986 -0.0441
vn -0.0316 -0.9983 -0.0488
vn -0.0223 -0.9986 -0.0476
vn 0.6547 0.2421 0.7160
vn 0.6530 0.2370 0.7193
vn 0.6594 0.2405 0.7123
vn 0.4894 0.5768 -0.6540
vn 0.5672 0.4664 0.6788
vn 0.5907 0.6369 0.4954
vn 0.0012 1.0000 -0.0007
vn -0.4499 0.6419 0.6210
vn -0.6719 0.3161 -0.6698
vn -0.6211 0.5032 -0.6009
vn -0.6285 0.2494 0.7368
vn 0.0535 -0.9986 -0.0000
usemtl Material.007
s 1
f 29/1/1 32/2/1 35/3/1
f 34/4/2 29/5/2 30/6/2 31/7/2
f 34/4/3 32/8/3 29/5/3
f 29/1/4 35/3/4 33/9/4 30/10/4
f 33/9/5 35/3/5 34/4/5 31/11/5
f 32/2/6 34/12/6 35/3/6
usemtl Material.008
f 3/13/7 2/14/7 6/15/7 5/16/7
f 28/17/8 4/18/8 27/19/8 46/20/9
f 24/21/10 45/22/11 44/23/12 23/24/10
f 40/25/13 7/26/13 14/27/13 43/28/13
f 20/29/14 41/30/14 40/25/14 19/31/14
f 36/32/15 8/33/15 13/34/15 39/35/15
f 16/36/16 37/37/16 36/32/16 15/38/16
f 28/39/17 46/20/18 47/40/19
f 43/28/20 14/41/20 12/42/20 42/43/20
f 39/35/21 13/44/21 11/45/21 38/46/21
f 27/47/22 45/22/23 46/20/24
f 44/23/25 1/48/26 28/39/26 47/40/27
f 42/43/28 12/49/28 10/50/28 41/30/28
f 38/46/29 11/51/29 9/52/29 37/37/29
f 24/21/30 23/24/30 7/53/30 10/54/30
f 27/55/31 4/18/31 1/48/31
f 41/30/32 10/54/32 7/53/32 40/25/32
f 37/37/33 9/56/33 8/57/33 36/32/33
f 47/40/34 26/58/35 23/59/35 44/23/36
f 43/28/37 22/60/37 19/61/37 40/25/37
f 20/29/38 19/31/38 8/57/38 9/56/38
f 25/62/39 12/42/39 14/41/39 26/63/39
f 20/64/40 9/52/40 11/51/40 21/65/40
f 24/66/41 10/50/41 12/49/41 25/67/41
f 21/68/42 11/45/42 13/44/42 22/69/42
f 26/63/43 47/40/44 46/20/45 25/62/43
f 26/58/46 14/27/46 7/26/46 23/59/46
f 22/60/47 13/34/47 8/33/47 19/61/47
f 17/70/48 38/46/48 37/37/48 16/71/48
f 18/72/49 39/35/49 38/46/49 17/73/49
f 27/55/50 1/48/50 44/23/51 45/22/52
f 25/67/53 46/20/54 45/22/55 24/66/53
f 15/38/56 2/14/56 3/74/56 16/36/56
f 21/65/57 42/43/57 41/30/57 20/64/57
f 17/70/58 16/71/58 3/13/58 5/75/58
f 31/11/59 30/6/59 33/9/59
f 18/72/60 17/73/60 5/16/60 6/76/60
f 39/35/61 18/77/61 15/78/61 36/32/61
f 15/78/62 18/77/62 6/15/62 2/79/62
f 22/69/63 43/28/63 42/43/63 21/68/63
f 1/48/64 4/18/64 28/39/64
